<?xml version="1.0" encoding="UTF-8"?>
<svg width="110px" height="41px" viewBox="0 0 110 41" version="1.1" xmlns="http://www.w3.org/2000/svg" xmlns:xlink="http://www.w3.org/1999/xlink">
    <!-- Generator: Sketch 44.1 (41455) - http://www.bohemiancoding.com/sketch -->
    <title>D&amp;K keep your heart</title>
    <desc>Created with Sketch.</desc>
    <defs></defs>
    <g id="Page-1" stroke="none" stroke-width="1" fill="none" fill-rule="evenodd">
        <g id="登陆" transform="translate(-457.000000, -173.000000)" fill="#000000">
            <g id="D&amp;K-keep-your-heart" transform="translate(457.000000, 173.000000)">
                <g id="Group-36" transform="translate(0.262480, 0.571841)">
                    <path d="M14.8568519,0.123045421 L0.379851327,0.123045421 L0.379851327,5.83018911 L13.4240441,5.83018911 L13.4240441,5.94284493 L14.6695715,5.94284493 C23.0656001,6.06901944 27.3279215,10.7014266 27.4542794,19.8355603 C27.5783808,29.2242961 23.2528805,33.8567033 14.4800347,33.7305288 L6.77220524,33.7305288 L6.77220524,16.9515714 L0.379851327,23.354928 L0.379851327,38.9870492 L14.4800347,38.9870492 C27.8920191,39.3633196 34.4107309,32.9171538 34.0361701,19.6485516 C33.9098122,6.75847305 27.5152019,0.249219936 14.8568519,0.123045421" id="Fill-28"></path>
                    <polygon id="Fill-30" points="90.9572274 16.6449222 107.880155 0.309828765 98.8545937 0.309828765 73.8470192 25.3577231 73.8470192 39.1738325 80.4266535 39.1738325 80.4266535 26.9709544 86.631727 20.7748845 99.9827888 39.1738325 108.631533 39.1738325"></polygon>
                    <path d="M46.1760015,21.5612221 L46.1760015,21.5612221 C46.1489249,21.5296785 46.1624632,21.5454503 46.1760015,21.5612221" id="Fill-32"></path>
                    <path d="M63.9028812,32.3290904 C63.4087317,31.9370482 63.0657604,31.6418899 62.8694544,31.4436157 C63.711088,29.8912185 64.3541593,28.138294 64.8122065,26.200614 L59.8977883,26.200614 C59.7127643,26.9509017 59.4780997,27.6696458 59.1757434,28.3455807 C57.5940137,26.975686 56.1431547,25.6531067 54.8028588,24.3778428 L50.7187923,26.3808633 C53.1714886,28.8007102 55.2067527,30.7406434 56.8133027,32.1803847 C54.8412175,34.1496084 52.4291362,35.1319671 49.5748024,35.1319671 C46.3233438,34.935946 44.5520774,33.3610177 44.2564903,30.4116884 C44.353515,28.2486967 45.9284755,26.3312947 48.9836281,24.6594824 L53.1195916,22.7420804 C57.156274,20.8742469 59.1261028,18.1682542 59.029078,14.6286084 C58.7334909,10.302625 56.023566,7.99092768 50.9038163,7.69576944 C46.2737032,7.99092768 43.7127002,10.4490776 43.2208071,15.0702192 C43.2208071,16.5077075 43.7510588,18.048839 44.8025367,19.693614 L48.7376815,17.7626933 C48.15102,16.8006126 47.8870224,15.9511877 47.9479449,15.2189249 C47.9479449,12.857659 48.9317311,11.677026 50.9038163,11.677026 C53.0676946,11.580142 54.1033778,12.6616379 54.006353,14.9237667 C54.3019402,16.7916001 53.0203104,18.3665284 50.1637202,19.6440454 C50.1321308,19.6057424 50.1479255,19.6260205 50.1637202,19.6440454 L46.1766785,21.5614474 C46.2014987,21.592991 46.1879604,21.5772192 46.1766785,21.5614474 C41.6458466,23.7244391 39.3804307,26.8224741 39.3804307,30.8532992 C39.6760178,36.1638944 42.9748605,38.9667711 49.2792152,39.2619294 C53.5122035,39.2619294 57.156274,37.8830222 60.2091702,35.1319671 C61.4885435,36.3126001 63.3613475,37.7861382 65.8230694,39.5570876 L69.0722715,36.0174419 C67.9892042,35.3302414 66.2675783,34.1000398 63.9028812,32.3290904" id="Fill-34"></path>
                </g>
            </g>
        </g>
    </g>
</svg>