<?xml version="1.0" encoding="UTF-8"?>
<svg width="24px" height="24px" viewBox="0 0 24 24" version="1.1" xmlns="http://www.w3.org/2000/svg" xmlns:xlink="http://www.w3.org/1999/xlink">
    <!-- Generator: Sketch 44.1 (41455) - http://www.bohemiancoding.com/sketch -->
    <title>账户</title>
    <desc>Created with Sketch.</desc>
    <defs></defs>
    <g id="Page-1" stroke="none" stroke-width="1" fill="none" fill-rule="evenodd">
        <g id="登陆" transform="translate(-392.000000, -363.000000)">
            <g id="账户" transform="translate(392.000000, 363.000000)">
                <rect id="Rectangle" x="0" y="0" width="24" height="24"></rect>
                <path d="M12,2.84124444 C9.71031111,2.84124444 7.83693333,4.79788889 7.83693333,7.21244444 C7.83693333,9.627 9.71031111,11.5836444 12,11.5836444 C14.2896889,11.5836444 16.1630667,9.62702222 16.1630667,7.21244444 C16.1630667,4.79786667 14.2896889,2.84124444 12,2.84124444 Z M12,12.4162889 C9.25237778,12.4162889 7.00433333,10.0849778 7.00433333,7.21246667 C7.00433333,4.33995556 9.25237778,2.00866667 12,2.00866667 C14.7476222,2.00866667 16.9956667,4.33997778 16.9956667,7.21246667 C16.9956667,10.0849556 14.7476222,12.4162889 12,12.4162889 Z M12,13.7484444 C6.96268889,13.7484444 2.84126667,16.8707333 2.84126667,19.7848889 C2.84126667,20.7840222 4.09017778,21.2003333 7.21246667,21.2003333 C8.54464444,21.2003333 10.6261778,21.2003333 11.9999778,21.2003333 C13.4154222,21.2003333 15.4136889,21.2003333 16.7874889,21.2003333 C19.9097778,21.1586889 21.1586889,20.7424 21.1586889,19.7432667 C21.1587333,16.8291111 17.0373111,13.7484667 12,13.7484667 L12,13.7484444 Z M16.5793556,21.9913111 C15.3720889,21.9913111 13.3321778,21.9913111 12,21.9913111 C10.6678222,21.9913111 8.71117778,21.9913111 7.42064444,21.9913111 C3.75715556,21.9913111 2.00866667,21.4084889 2.00866667,19.7016222 C2.00866667,16.1214 6.46313333,12.8742222 12,12.8742222 C17.5368667,12.8742222 21.9913333,16.1214 21.9913333,19.7016222 C21.9913333,21.4084444 20.2428444,21.9913111 16.5793556,21.9913111 Z" id="Shape" fill="#444444" fill-rule="nonzero"></path>
            </g>
        </g>
    </g>
</svg>