<?xml version="1.0" encoding="UTF-8"?>
<svg width="24px" height="24px" viewBox="0 0 24 24" version="1.1" xmlns="http://www.w3.org/2000/svg" xmlns:xlink="http://www.w3.org/1999/xlink">
    <!-- Generator: Sketch 44.1 (41455) - http://www.bohemiancoding.com/sketch -->
    <title>密码</title>
    <desc>Created with Sketch.</desc>
    <defs></defs>
    <g id="Page-1" stroke="none" stroke-width="1" fill="none" fill-rule="evenodd">
        <g id="登陆" transform="translate(-392.000000, -437.000000)">
            <g id="密码" transform="translate(392.000000, 437.000000)">
                <rect id="Rectangle-Copy" x="0" y="0" width="24" height="24"></rect>
                <path d="M20.410625,22 L4.339375,22 C3.60125,22 3,21.41625 3,20.700625 L3,11.4575 C3,10.74 3.60125,10.158125 4.339375,10.158125 L20.410625,10.158125 C21.15,10.158125 21.75,10.74 21.75,11.4575 L21.75,20.700625 C21.75,21.41625 21.15,22 20.410625,22 L20.410625,22 L20.410625,22 Z M4.339375,11.024375 C4.093125,11.024375 3.8925,11.21875 3.8925,11.4575 L3.8925,20.700625 C3.8925,20.93875 4.093125,21.13375 4.339375,21.13375 L20.410625,21.13375 C20.65625,21.13375 20.856875,20.93875 20.856875,20.700625 L20.856875,11.4575 C20.856875,11.21875 20.65625,11.024375 20.410625,11.024375 L4.339375,11.024375 L4.339375,11.024375 L4.339375,11.024375 Z M18.103125,10.81125 C17.8575,10.81125 17.656875,10.616875 17.656875,10.378125 L17.656875,7.99375 C17.656875,5.16625 15.2875,2.86625 12.375,2.86625 C9.4625,2.86625 7.09125,5.16625 7.09125,7.99375 L7.09125,10.378125 C7.09125,10.616875 6.8925,10.81125 6.644375,10.81125 C6.39875,10.81125 6.198125,10.616875 6.198125,10.378125 L6.198125,7.99375 C6.198125,4.68875 8.969375,2 12.375,2 C15.780625,2 18.55,4.68875 18.55,7.99375 L18.55,10.378125 C18.55,10.616875 18.35125,10.81125 18.103125,10.81125 L18.103125,10.81125 L18.103125,10.81125 Z M13.7125,18.9675 L11.03375,18.9675 L11.03375,16.740625 C10.4325,16.3225 10.068125,15.650625 10.068125,14.928125 C10.068125,13.693125 11.10375,12.689375 12.375,12.689375 C13.64625,12.689375 14.68,13.693125 14.68,14.928125 C14.68,15.649375 14.315625,16.3225 13.7125,16.740625 L13.7125,18.9675 L13.7125,18.9675 L13.7125,18.9675 Z M11.926875,18.10125 L12.819375,18.10125 L12.819375,16.248125 L13.05,16.124375 C13.505,15.88125 13.7875,15.4225 13.7875,14.928125 C13.7875,14.171875 13.154375,13.55625 12.375,13.55625 C11.595,13.55625 10.960625,14.171875 10.960625,14.928125 C10.960625,15.4225 11.243125,15.88125 11.69625,16.123125 L11.926875,16.24625 L11.926875,18.10125 L11.926875,18.10125 L11.926875,18.10125 Z" id="Shape" fill="#444444" fill-rule="nonzero"></path>
            </g>
        </g>
    </g>
</svg>