<?xml version="1.0" encoding="UTF-8"?>
<svg width="48px" height="48px" viewBox="0 0 48 48" version="1.1" xmlns="http://www.w3.org/2000/svg" xmlns:xlink="http://www.w3.org/1999/xlink">
    <!-- Generator: Sketch 44.1 (41455) - http://www.bohemiancoding.com/sketch -->
    <title>Group 3</title>
    <desc>Created with Sketch.</desc>
    <defs>
        <rect id="path-1" x="9" y="3" width="4.375" height="42" rx="2"></rect>
        <path d="M5.29038311,5.25 L9.32866788,5.25 L9.32866788,5.25 C10.9025839,5.25 12.2089071,6.46634264 12.321044,8.03625885 L14.5939902,39.8575059 L14.5939902,39.8575059 C14.6726875,40.9592684 13.8433294,41.9162201 12.7415669,41.9949174 C12.6941444,41.9983047 12.6466161,42 12.5990728,42 L2.01997819,42 L2.01997819,42 C0.915408688,42 0.0199781873,41.1045695 0.0199781873,40 C0.0199781873,39.9524567 0.0216734645,39.9049284 0.0250607877,39.8575059 L2.29800701,8.03625885 L2.29800701,8.03625885 C2.41014388,6.46634264 3.71646711,5.25 5.29038311,5.25 Z" id="path-2"></path>
    </defs>
    <g id="Page-1" stroke="none" stroke-width="1" fill="none" fill-rule="evenodd">
        <g id="服务列表" transform="translate(-251.000000, -218.000000)">
            <g id="Group-3" transform="translate(251.000000, 218.000000)">
                <rect id="Rectangle-11" x="0" y="0" width="48" height="48"></rect>
                <g id="Rectangle-5">
                    <use fill="#FDD942" fill-rule="evenodd" xlink:href="#path-1"></use>
                    <rect stroke="#444444" stroke-width="1.5" x="9.75" y="3.75" width="2.875" height="40.5" rx="1.4375"></rect>
                </g>
                <g id="Group-2" transform="translate(23.000000, 3.000000)">
                    <g id="Rectangle-4">
                        <use fill="#D8D8D8" fill-rule="evenodd" xlink:href="#path-2"></use>
                        <path stroke="#444444" stroke-width="1.5" d="M5.29038311,6 C4.10994611,6 3.13020368,6.91225698 3.04610103,8.08969414 L0.773154813,39.9109412 C0.771037736,39.9405803 0.769978187,39.9702854 0.769978187,40 C0.769978187,40.6903559 1.32962225,41.25 2.01997819,41.25 L12.5990728,41.25 C12.6287874,41.25 12.6584925,41.2489405 12.6881316,41.2468234 C13.3767332,41.1976376 13.895082,40.5995427 13.8458962,39.9109412 L11.57295,8.08969414 C11.4888473,6.91225698 10.5091049,6 9.32866788,6 L5.29038311,6 Z"></path>
                    </g>
                    <path d="M13.8679281,36.7386276 L0.749111698,36.7386276 L0.523790138,39.8931294 C0.521249645,39.9286963 0.519978187,39.9643425 0.519978187,40 C0.519978187,40.8284271 1.19155106,41.5 2.01997819,41.5 L12.5982592,41.5 C12.6341056,41.5 12.6699406,41.498715 12.7056949,41.4961476 C13.5319944,41.4368124 14.1537419,40.7188637 14.0944068,39.8925642 L13.8679281,36.7386276 Z" id="Rectangle-4" stroke="#444444"></path>
                    <path d="M4.36475727,5.375 L10.5102427,5.375 L10.0028461,1.8232233 C9.91487307,1.20741238 9.38747217,0.75 8.7654092,0.75 L6.1095908,0.75 C5.48752783,0.75 4.96012693,1.20741238 4.87215394,1.8232233 L4.36475727,5.375 Z" id="Rectangle-3" stroke="#444444" stroke-width="1.5"></path>
                </g>
                <g id="Group" transform="translate(12.500000, 4.750000)" stroke="#444444" stroke-width="0.5">
                    <path d="M0.25,0.25 L0.25,1.5 L4.30459489,1.5 C4.53967783,1.5 4.76116004,1.38977515 4.90291087,1.20223664 L5.26419331,0.724254453 C5.30302094,0.672884905 5.32402914,0.610250259 5.32402914,0.545857593 C5.32402914,0.382459956 5.19156918,0.25 5.02817154,0.25 L0.25,0.25 Z" id="Rectangle-6"></path>
                    <path d="M0.25,1.5625 L0.25,2.8125 L4.30459489,2.8125 C4.53967783,2.8125 4.76116004,2.70227515 4.90291087,2.51473664 L5.26419331,2.03675445 C5.30302094,1.9853849 5.32402914,1.92275026 5.32402914,1.85835759 C5.32402914,1.69495996 5.19156918,1.5625 5.02817154,1.5625 L0.25,1.5625 Z" id="Rectangle-6-Copy" transform="translate(2.787015, 2.187500) scale(1, -1) translate(-2.787015, -2.187500) "></path>
                </g>
                <g id="Group-Copy" transform="translate(12.500000, 7.375000)" stroke="#444444" stroke-width="0.5">
                    <path d="M0.25,0.25 L0.25,1.5 L4.30459489,1.5 C4.53967783,1.5 4.76116004,1.38977515 4.90291087,1.20223664 L5.26419331,0.724254453 C5.30302094,0.672884905 5.32402914,0.610250259 5.32402914,0.545857593 C5.32402914,0.382459956 5.19156918,0.25 5.02817154,0.25 L0.25,0.25 Z" id="Rectangle-6"></path>
                    <path d="M0.25,1.5625 L0.25,2.8125 L4.30459489,2.8125 C4.53967783,2.8125 4.76116004,2.70227515 4.90291087,2.51473664 L5.26419331,2.03675445 C5.30302094,1.9853849 5.32402914,1.92275026 5.32402914,1.85835759 C5.32402914,1.69495996 5.19156918,1.5625 5.02817154,1.5625 L0.25,1.5625 Z" id="Rectangle-6-Copy" transform="translate(2.787015, 2.187500) scale(1, -1) translate(-2.787015, -2.187500) "></path>
                </g>
                <g id="Group-Copy-2" transform="translate(12.500000, 10.000000)" stroke="#444444" stroke-width="0.5">
                    <path d="M0.25,0.25 L0.25,1.5 L4.30459489,1.5 C4.53967783,1.5 4.76116004,1.38977515 4.90291087,1.20223664 L5.26419331,0.724254453 C5.30302094,0.672884905 5.32402914,0.610250259 5.32402914,0.545857593 C5.32402914,0.382459956 5.19156918,0.25 5.02817154,0.25 L0.25,0.25 Z" id="Rectangle-6"></path>
                    <path d="M0.25,1.5625 L0.25,2.8125 L4.30459489,2.8125 C4.53967783,2.8125 4.76116004,2.70227515 4.90291087,2.51473664 L5.26419331,2.03675445 C5.30302094,1.9853849 5.32402914,1.92275026 5.32402914,1.85835759 C5.32402914,1.69495996 5.19156918,1.5625 5.02817154,1.5625 L0.25,1.5625 Z" id="Rectangle-6-Copy" transform="translate(2.787015, 2.187500) scale(1, -1) translate(-2.787015, -2.187500) "></path>
                </g>
                <g id="Group-Copy-3" transform="translate(12.500000, 12.625000)" stroke="#444444" stroke-width="0.5">
                    <path d="M0.25,0.25 L0.25,1.5 L4.30459489,1.5 C4.53967783,1.5 4.76116004,1.38977515 4.90291087,1.20223664 L5.26419331,0.724254453 C5.30302094,0.672884905 5.32402914,0.610250259 5.32402914,0.545857593 C5.32402914,0.382459956 5.19156918,0.25 5.02817154,0.25 L0.25,0.25 Z" id="Rectangle-6"></path>
                    <path d="M0.25,1.5625 L0.25,2.8125 L4.30459489,2.8125 C4.53967783,2.8125 4.76116004,2.70227515 4.90291087,2.51473664 L5.26419331,2.03675445 C5.30302094,1.9853849 5.32402914,1.92275026 5.32402914,1.85835759 C5.32402914,1.69495996 5.19156918,1.5625 5.02817154,1.5625 L0.25,1.5625 Z" id="Rectangle-6-Copy" transform="translate(2.787015, 2.187500) scale(1, -1) translate(-2.787015, -2.187500) "></path>
                </g>
            </g>
        </g>
    </g>
</svg>