<?xml version="1.0" encoding="UTF-8"?>
<svg width="48px" height="48px" viewBox="0 0 48 48" version="1.1" xmlns="http://www.w3.org/2000/svg" xmlns:xlink="http://www.w3.org/1999/xlink">
    <!-- Generator: Sketch 44.1 (41455) - http://www.bohemiancoding.com/sketch -->
    <title>Group 8</title>
    <desc>Created with Sketch.</desc>
    <defs>
        <path d="M7.33333333,19.6115592 L19.1813879,19.6115592 L19.1813879,8.59446459 L19.1813879,8.59446459 C19.1813879,7.48989509 20.0768184,6.59446459 21.1813879,6.59446459 L26.9868137,6.59446459 L26.9868137,6.59446459 C28.0913832,6.59446459 28.9868137,7.48989509 28.9868137,8.59446459 L28.9868137,19.6115592 L40.6666667,19.6115592 L40.6666667,19.6115592 C41.7712362,19.6115592 42.6666667,20.5069897 42.6666667,21.6115592 L42.6666667,41.5026539 L42.6666667,41.5026539 C42.6666667,42.6072234 41.7712362,43.5026539 40.6666667,43.5026539 L36.6097874,43.5026539 L34.5769585,37.3265176 L32.0600074,43.5026539 L27.0042883,43.5026539 L24,39.6676061 L20.852914,43.5026539 L16.1133072,43.5026539 L13.9206292,35.1226264 L11.4728384,43.5026539 L7.33333333,43.5026539 L7.33333333,43.5026539 C6.22876383,43.5026539 5.33333333,42.6072234 5.33333333,41.5026539 L5.33333333,21.6115592 L5.33333333,21.6115592 C5.33333333,20.5069897 6.22876383,19.6115592 7.33333333,19.6115592 Z" id="path-1"></path>
        <path d="M5,18.9319342 L18.5790614,18.9319342 L18.5790614,6.28770276 L18.5790614,6.28770276 C18.5790614,5.18313326 19.4744919,4.28770276 20.5790614,4.28770276 L27.6101654,4.28770276 L27.6101654,4.28770276 C28.7147349,4.28770276 29.6101654,5.18313326 29.6101654,6.28770276 L29.6101654,18.9319342 L43,18.9319342 L43,18.9319342 C44.1045695,18.9319342 45,19.8273647 45,20.9319342 L45,28.8748544 L3,28.8748544 L3,20.9319342 L3,20.9319342 C3,19.8273647 3.8954305,18.9319342 5,18.9319342 Z" id="path-2"></path>
    </defs>
    <g id="Page-1" stroke="none" stroke-width="1" fill="none" fill-rule="evenodd">
        <g id="服务列表" transform="translate(-76.000000, -218.000000)">
            <g id="Group-8" transform="translate(76.000000, 218.000000)">
                <rect id="Rectangle-11" x="0" y="0" width="48" height="48"></rect>
                <g id="Rectangle-8">
                    <use fill="#D8D8D8" fill-rule="evenodd" xlink:href="#path-1"></use>
                    <path stroke="#444444" stroke-width="1" d="M11.0979937,43.0026539 L13.9471234,33.2486401 L16.4993121,43.0026539 L20.6164194,43.0026539 L24.009056,38.8683774 L27.2477532,43.0026539 L31.7238459,43.0026539 L34.6269202,35.879042 L36.9716036,43.0026539 L40.6666667,43.0026539 C41.4950938,43.0026539 42.1666667,42.3310811 42.1666667,41.5026539 L42.1666667,21.6115592 C42.1666667,20.7831321 41.4950938,20.1115592 40.6666667,20.1115592 L28.4868137,20.1115592 L28.4868137,8.59446459 C28.4868137,7.76603747 27.8152408,7.09446459 26.9868137,7.09446459 L21.1813879,7.09446459 C20.3529608,7.09446459 19.6813879,7.76603747 19.6813879,8.59446459 L19.6813879,20.1115592 L7.33333333,20.1115592 C6.50490621,20.1115592 5.83333333,20.7831321 5.83333333,21.6115592 L5.83333333,41.5026539 C5.83333333,42.3310811 6.50490621,43.0026539 7.33333333,43.0026539 L11.0979937,43.0026539 Z"></path>
                </g>
                <g id="Rectangle-8">
                    <use fill="#FDD942" fill-rule="evenodd" xlink:href="#path-2"></use>
                    <path stroke="#444444" stroke-width="1.5" d="M3.75,28.1248544 L44.25,28.1248544 L44.25,20.9319342 C44.25,20.2415783 43.6903559,19.6819342 43,19.6819342 L28.8601654,19.6819342 L28.8601654,6.28770276 C28.8601654,5.59734682 28.3005213,5.03770276 27.6101654,5.03770276 L20.5790614,5.03770276 C19.8887055,5.03770276 19.3290614,5.59734682 19.3290614,6.28770276 L19.3290614,19.6819342 L5,19.6819342 C4.30964406,19.6819342 3.75,20.2415783 3.75,20.9319342 L3.75,28.1248544 Z"></path>
                </g>
            </g>
        </g>
    </g>
</svg>