<?xml version="1.0" encoding="UTF-8"?>
<svg width="48px" height="48px" viewBox="0 0 48 48" version="1.1" xmlns="http://www.w3.org/2000/svg" xmlns:xlink="http://www.w3.org/1999/xlink">
    <!-- Generator: Sketch 44.1 (41455) - http://www.bohemiancoding.com/sketch -->
    <title>Rectangle 11</title>
    <desc>Created with Sketch.</desc>
    <defs>
        <rect id="path-1" x="191" y="332" width="168" height="180" rx="5"></rect>
        <filter x="-4.2%" y="-2.8%" width="108.3%" height="107.8%" filterUnits="objectBoundingBox" id="filter-2">
            <feOffset dx="0" dy="2" in="SourceAlpha" result="shadowOffsetOuter1"></feOffset>
            <feGaussianBlur stdDeviation="2" in="shadowOffsetOuter1" result="shadowBlurOuter1"></feGaussianBlur>
            <feColorMatrix values="0 0 0 0 0.76392432   0 0 0 0 0.76392432   0 0 0 0 0.76392432  0 0 0 0.5 0" type="matrix" in="shadowBlurOuter1"></feColorMatrix>
        </filter>
        <path d="M4.25460682,12.9017814 C5.52320483,13.2991414 6.43954464,13.4978214 7.00362623,13.4978214 C7.56694755,13.4978214 8.48067879,13.2996766 9.74481996,12.903387 L9.74481995,12.903387 C10.7988134,12.5729756 11.9210952,13.1595547 12.2515066,14.2135481 C12.3293847,14.4619748 12.35801,14.7232168 12.335776,14.9826132 L10.6567884,34.5708023 L10.6567884,34.5708023 C10.5681111,35.6053706 9.70245693,36.4 8.66409508,36.4 L5.33590492,36.4 L5.33590492,36.4 C4.29754307,36.4 3.43188891,35.6053706 3.34321162,34.5708023 L1.66409838,14.9811478 L1.6640984,14.9811478 C1.5697669,13.8806137 2.38545529,12.9119837 3.4859894,12.8176522 C3.74522848,12.7954317 4.00631251,12.8240087 4.25460682,12.9017814 Z" id="path-3"></path>
    </defs>
    <g id="Page-1" stroke="none" stroke-width="1" fill="none" fill-rule="evenodd">
        <g id="服务列表" transform="translate(-251.000000, -406.000000)">
            <rect id="Rectangle" fill="#F2F2F2" x="0" y="64" width="375" height="603"></rect>
            <g id="Rectangle-2-Copy-4">
                <use fill="black" fill-opacity="1" filter="url(#filter-2)" xlink:href="#path-1"></use>
                <use fill="#FFFFFF" fill-rule="evenodd" xlink:href="#path-1"></use>
            </g>
            <g id="Group-7" transform="translate(251.000000, 406.000000)">
                <rect id="Rectangle-11" x="0" y="0" width="48" height="48"></rect>
                <path d="M15.3614448,39 C14.3120247,40.7253042 12.5728663,44.2668918 15.3614448,45.29713 C18.1500232,46.3273682 27.6065453,35.1462607 40.1915876,44.5534478" id="Path-2" stroke="#444444" stroke-width="1.5" stroke-linecap="round"></path>
                <g id="Group-6" transform="translate(24.159091, 23.613636) rotate(-330.000000) translate(-24.159091, -23.613636) translate(17.000000, 5.000000)">
                    <g id="Rectangle-9">
                        <use fill="#D8D8D8" fill-rule="evenodd" xlink:href="#path-3"></use>
                        <path stroke="#444444" stroke-width="2" d="M3.95569925,13.8560635 C3.83155209,13.8171771 3.70101008,13.8028886 3.57139054,13.8139989 C3.02112349,13.8611646 2.61327929,14.3454796 2.66044503,14.8957467 L4.33955827,34.4854011 C4.38389692,35.0026853 4.816724,35.4 5.33590492,35.4 L8.66409508,35.4 C9.183276,35.4 9.61610308,35.0026853 9.66044173,34.4854011 L11.3394294,14.897212 C11.3505464,14.7675138 11.3362337,14.6368928 11.2972947,14.5126795 C11.132089,13.9856828 10.570948,13.6923932 10.0439513,13.8575989 C8.68946139,14.2822116 7.69519125,14.4978214 7.00362623,14.4978214 C6.31133356,14.4978214 5.31461772,14.2817144 3.95569925,13.8560635 Z"></path>
                    </g>
                    <circle id="Oval-3" stroke="#444444" stroke-width="2" fill="#FDD942" cx="7" cy="7" r="7"></circle>
                    <path d="M13.523499,9.31221396 C13.8311538,8.5237843 14,7.89733942 14,7 C14,3.13400675 10.8659932,0 7,0 C3.13400675,0 0,3.13400675 0,7 C0,7.81026326 0.137667061,8.58837266 0.390886952,9.31221396 C2.78449863,10.7151253 10.8870246,10.8343831 13.523499,9.31221396 Z" id="Oval-3" stroke="#444444" stroke-width="1.5"></path>
                </g>
            </g>
        </g>
    </g>
</svg>